PathFileType	4	(X/Y/Z)	/home/nbianco/projects/addbio/data/HamnerRunning2013/Processed/subject02//results/MarkerData/run500.trc
DataRate	CameraRate	NumFrames	NumMarkers	Units	OrigDataRate	OrigDataStartFrame	OrigNumFrames
120.005	120.005	10	42	m	120.005	0	236
Frame#	Time	C7			CLAV			LACR			LASI			LCAL			LFAradius			LFAsuperior			LFAulna			LLEL			LMEL			LMT5			LPSI			LTB1			LTB2			LTB3			LTH1			LTH2			LTH3			LTOE			LUA1			LUA2			LUA3			RACR			RASI			RCAL			RFAradius			RFAsuperior			RFAulna			RLEL			RMEL			RMT5			RPSI			RTB1			RTB2			RTB3			RTH1			RTH2			RTH3			RTOE			RUA1			RUA2			RUA3		
		X1	Y1	Z1	X2	Y2	Z2	X3	Y3	Z3	X4	Y4	Z4	X5	Y5	Z5	X6	Y6	Z6	X7	Y7	Z7	X8	Y8	Z8	X9	Y9	Z9	X10	Y10	Z10	X11	Y11	Z11	X12	Y12	Z12	X13	Y13	Z13	X14	Y14	Z14	X15	Y15	Z15	X16	Y16	Z16	X17	Y17	Z17	X18	Y18	Z18	X19	Y19	Z19	X20	Y20	Z20	X21	Y21	Z21	X22	Y22	Z22	X23	Y23	Z23	X24	Y24	Z24	X25	Y25	Z25	X26	Y26	Z26	X27	Y27	Z27	X28	Y28	Z28	X29	Y29	Z29	X30	Y30	Z30	X31	Y31	Z31	X32	Y32	Z32	X33	Y33	Z33	X34	Y34	Z34	X35	Y35	Z35	X36	Y36	Z36	X37	Y37	Z37	X38	Y38	Z38	X39	Y39	Z39	X40	Y40	Z40	X41	Y41	Z41	X42	Y42	Z42

1	0.166667	0.88479	1.5796	-0.65831	0.987638	1.49657	-0.587473	1.00532	1.54904	-0.795006	0.964707	1.06781	-0.781578	0.227489	0.552795	-0.650932	1.09594	1.27803	-0.734245	1.02186	1.22942	-0.890958	1.11971	1.20938	-0.748541	0.94421	1.21628	-0.954038	0.87248	1.2053	-0.90002	0.166685	0.398648	-0.733666	0.786765	1.12298	-0.696058	0.561678	0.489346	-0.711243	0.465344	0.507175	-0.753054	0.359979	0.466559	-0.682981	0.825466	0.869218	-0.825326	0.816934	0.734599	-0.804732	0.706051	0.665124	-0.780771	0.200577	0.320292	-0.658148	1.01072	1.45974	-0.8688	1.01884	1.39005	-0.862845	0.925831	1.37931	-0.898951	0.903183	1.5553	-0.475189	0.949672	1.07606	-0.530085	1.17999	0.115581	-0.627383	0.785595	1.17183	-0.39267	0.655298	1.30131	-0.374214	0.734676	1.15114	-0.347125	0.590649	1.37648	-0.415794	0.60324	1.3602	-0.495244	1.35476	0.0997393	-0.55519	0.779801	1.11303	-0.611521	1.19716	0.456915	-0.59486	1.18959	0.386051	-0.528439	1.23596	0.296614	-0.599667	0.923642	0.900963	-0.465917	1.01825	0.818548	-0.470233	1.00883	0.697124	-0.516171	1.40955	0.169775	-0.630346	0.817501	1.50065	-0.418913	0.770385	1.42273	-0.42325	0.70391	1.46441	-0.443654
2	0.175	0.885021	1.57533	-0.65721	0.988069	1.49148	-0.587851	1.00502	1.5445	-0.794747	0.964445	1.064	-0.780539	0.246588	0.578167	-0.6512	1.09199	1.26519	-0.735831	1.01419	1.22366	-0.89324	1.11311	1.19635	-0.752671	0.935893	1.21453	-0.955902	0.864141	1.20483	-0.901327	0.173783	0.430682	-0.735558	0.785277	1.11689	-0.697362	0.573343	0.487621	-0.71077	0.47878	0.511495	-0.753117	0.370246	0.481409	-0.683126	0.831358	0.861434	-0.824702	0.82688	0.726404	-0.804586	0.718504	0.653901	-0.782149	0.198679	0.349636	-0.659977	1.00736	1.45658	-0.870004	1.01477	1.38693	-0.865568	0.920933	1.37759	-0.899095	0.905432	1.54949	-0.47453	0.946758	1.07471	-0.530129	1.15728	0.109802	-0.630255	0.796961	1.16409	-0.386608	0.663759	1.29029	-0.366653	0.747091	1.14277	-0.340157	0.59685	1.36419	-0.407297	0.608044	1.34771	-0.487092	1.33189	0.0844722	-0.560694	0.777303	1.10904	-0.612903	1.18716	0.449522	-0.595745	1.1773	0.378662	-0.530128	1.22008	0.287914	-0.601957	0.918909	0.899166	-0.46553	1.01539	0.819428	-0.470659	1.00542	0.695498	-0.516923	1.38835	0.154503	-0.634913	0.820823	1.4935	-0.416663	0.775197	1.41453	-0.419411	0.707529	1.45445	-0.43804
3	0.183333	0.884989	1.57019	-0.656105	0.988626	1.48539	-0.587988	1.00476	1.53893	-0.794633	0.963977	1.05887	-0.780166	0.268815	0.600487	-0.65187	1.0876	1.25094	-0.738167	1.00618	1.21698	-0.896007	1.1058	1.18204	-0.757444	0.927301	1.21208	-0.957956	0.85563	1.20365	-0.902779	0.185255	0.460011	-0.737798	0.78355	1.1093	-0.698864	0.586688	0.485113	-0.711019	0.494163	0.514939	-0.75369	0.383586	0.494573	-0.683945	0.836588	0.852851	-0.824088	0.83714	0.717814	-0.804686	0.731584	0.642321	-0.783821	0.202102	0.376946	-0.662387	1.00394	1.4525	-0.871306	1.01057	1.38272	-0.86812	0.916199	1.37488	-0.899457	0.907786	1.54268	-0.473731	0.943876	1.07218	-0.529096	1.13016	0.105235	-0.633044	0.809334	1.15568	-0.380834	0.673248	1.27864	-0.358494	0.760957	1.13396	-0.332858	0.603784	1.35079	-0.397939	0.613312	1.33411	-0.47799	1.30361	0.0701184	-0.565544	0.774606	1.10359	-0.614528	1.17569	0.440918	-0.596629	1.16262	0.370196	-0.531699	1.20154	0.277983	-0.604181	0.914613	0.897563	-0.466261	1.01339	0.819817	-0.472943	1.00105	0.692735	-0.517244	1.3624	0.136202	-0.641286	0.824391	1.48528	-0.414166	0.780405	1.40531	-0.415126	0.711633	1.4435	-0.431885
4	0.191667	0.884699	1.56431	-0.654938	0.989369	1.47832	-0.587884	1.00452	1.53242	-0.79476	0.963276	1.05254	-0.78043	0.293342	0.619755	-0.652802	1.08283	1.23536	-0.741292	0.997936	1.20941	-0.899185	1.09779	1.16652	-0.76275	0.918485	1.20896	-0.960161	0.847079	1.20175	-0.904373	0.200804	0.486225	-0.740424	0.781537	1.1005	-0.700535	0.601615	0.481674	-0.711995	0.511409	0.517481	-0.754758	0.399757	0.505925	-0.685274	0.84138	0.843531	-0.823439	0.847638	0.708933	-0.805018	0.745118	0.630534	-0.785515	0.210843	0.401643	-0.665432	1.00064	1.44739	-0.87269	1.00628	1.37736	-0.870427	0.911554	1.37121	-0.900042	0.910259	1.53494	-0.472785	0.941044	1.06857	-0.527231	1.09902	0.10211	-0.636297	0.822639	1.14667	-0.375527	0.683807	1.26641	-0.34979	0.776244	1.12471	-0.325408	0.611515	1.33634	-0.387771	0.619027	1.31943	-0.467986	1.27042	0.0583931	-0.569253	0.771752	1.09672	-0.616405	1.16293	0.431493	-0.5979	1.14605	0.360896	-0.53372	1.18044	0.267302	-0.607019	0.910908	0.895467	-0.467649	1.01157	0.818737	-0.476594	0.995714	0.688649	-0.51704	1.33208	0.116546	-0.648956	0.828154	1.47603	-0.411412	0.785991	1.39505	-0.410509	0.71614	1.43159	-0.425243
5	0.2	0.884186	1.55794	-0.653641	0.990365	1.47033	-0.587628	1.00429	1.52514	-0.795235	0.962256	1.04523	-0.780837	0.319328	0.636034	-0.653873	1.0777	1.21854	-0.745216	0.98957	1.20104	-0.902732	1.08909	1.14987	-0.768491	0.909484	1.2052	-0.962473	0.83856	1.19916	-0.906091	0.220044	0.508835	-0.743431	0.779108	1.09109	-0.702252	0.618097	0.477278	-0.713504	0.530459	0.519009	-0.756217	0.418443	0.515316	-0.6869	0.846154	0.833624	-0.822704	0.858208	0.699899	-0.805581	0.758906	0.618693	-0.786722	0.224614	0.423075	-0.669065	0.997605	1.44112	-0.87416	1.00193	1.37079	-0.872449	0.906914	1.36668	-0.900859	0.912854	1.52645	-0.471717	0.93812	1.06409	-0.525001	1.06444	0.100507	-0.640565	0.836855	1.13723	-0.370711	0.695444	1.25358	-0.340641	0.792882	1.11505	-0.318081	0.62013	1.32092	-0.376903	0.625233	1.30372	-0.457177	1.23345	0.0511052	-0.571718	0.768613	1.08871	-0.61849	1.14915	0.422245	-0.600283	1.12872	0.35162	-0.537104	1.15695	0.257073	-0.61153	0.907662	0.892106	-0.468815	1.00883	0.815373	-0.480079	0.989638	0.683449	-0.516643	1.29806	0.0985929	-0.656974	0.832102	1.46574	-0.40833	0.791938	1.38373	-0.405736	0.720938	1.41866	-0.418168
6	0.208333	0.883536	1.55139	-0.652184	0.991587	1.46171	-0.587423	1.00398	1.51732	-0.796129	0.960746	1.03728	-0.780565	0.346476	0.64937	-0.655127	1.07211	1.20056	-0.749851	0.98109	1.19192	-0.906706	1.07971	1.13221	-0.774638	0.900286	1.20087	-0.964861	0.830023	1.19602	-0.907876	0.242622	0.527487	-0.746741	0.776101	1.08174	-0.703825	0.636274	0.472196	-0.71513	0.55131	0.519334	-0.757846	0.439413	0.522638	-0.688686	0.851238	0.823475	-0.821857	0.868631	0.690931	-0.806317	0.77291	0.606897	-0.786958	0.24277	0.440882	-0.673051	0.994852	1.43366	-0.875735	0.997452	1.36311	-0.874197	0.902233	1.36143	-0.901913	0.915466	1.51762	-0.470558	0.934778	1.05897	-0.52283	1.02723	0.100299	-0.645741	0.852049	1.12756	-0.366178	0.70813	1.24009	-0.331181	0.810778	1.10498	-0.311107	0.629717	1.30461	-0.365499	0.632101	1.287	-0.44569	1.19413	0.0484886	-0.573525	0.764861	1.08012	-0.620643	1.13465	0.414513	-0.604294	1.11174	0.343802	-0.542233	1.13143	0.248956	-0.618067	0.90429	0.88741	-0.469006	1.00421	0.809861	-0.481498	0.983188	0.677858	-0.516712	1.26119	0.0851134	-0.664265	0.836345	1.45435	-0.404788	0.79827	1.37142	-0.40093	0.725997	1.40462	-0.410624
7	0.216667	0.882898	1.54502	-0.650583	0.992879	1.45303	-0.587499	1.00341	1.5093	-0.797473	0.958535	1.02906	-0.779101	0.374785	0.659752	-0.656753	1.06584	1.18152	-0.75501	0.972291	1.18204	-0.911171	1.0696	1.11368	-0.781182	0.890876	1.19613	-0.967293	0.821417	1.19253	-0.909637	0.268145	0.541913	-0.750247	0.772425	1.07311	-0.705123	0.65641	0.466895	-0.716418	0.573974	0.518302	-0.759388	0.462526	0.527854	-0.690547	0.856639	0.813708	-0.8209	0.878803	0.682435	-0.807055	0.787355	0.59532	-0.786077	0.264489	0.454926	-0.677021	0.992232	1.42518	-0.877399	0.992678	1.35456	-0.875694	0.897485	1.35564	-0.903206	0.917828	1.50902	-0.469309	0.930702	1.05346	-0.520867	0.988413	0.101242	-0.650997	0.868309	1.11787	-0.361716	0.72191	1.2259	-0.321589	0.829869	1.09462	-0.304609	0.640412	1.2875	-0.353758	0.639932	1.26927	-0.433669	1.15378	0.0490576	-0.575355	0.760229	1.07171	-0.622692	1.11946	0.409232	-0.609647	1.09532	0.338734	-0.548321	1.10456	0.244153	-0.625549	0.90003	0.882092	-0.46813	0.997384	0.803102	-0.480024	0.976533	0.672652	-0.51767	1.22249	0.0770485	-0.669979	0.841099	1.44187	-0.400706	0.805101	1.35843	-0.396122	0.731475	1.38943	-0.402461
8	0.225	0.882433	1.53918	-0.648905	0.994004	1.44497	-0.587971	1.00232	1.50149	-0.79922	0.955478	1.02102	-0.776714	0.404056	0.667189	-0.658971	1.05861	1.16167	-0.760472	0.962828	1.17148	-0.915966	1.05865	1.09455	-0.788073	0.881312	1.19126	-0.96969	0.812798	1.18891	-0.911288	0.296075	0.55186	-0.753851	0.768163	1.06572	-0.706155	0.678772	0.46181	-0.717093	0.598439	0.51595	-0.760678	0.487666	0.531007	-0.692379	0.862098	0.805048	-0.819875	0.888949	0.674966	-0.807539	0.802718	0.584347	-0.784427	0.289035	0.465091	-0.680587	0.989496	1.4161	-0.879057	0.987473	1.3456	-0.876924	0.892646	1.34962	-0.904721	0.919599	1.50124	-0.467968	0.925835	1.04797	-0.519025	0.948923	0.102941	-0.655286	0.885714	1.10834	-0.357312	0.737041	1.21119	-0.312098	0.85016	1.08423	-0.298642	0.652459	1.2698	-0.341869	0.649084	1.25071	-0.421272	1.1132	0.0506563	-0.577365	0.754815	1.06431	-0.624554	1.10336	0.406173	-0.615175	1.0784	0.336535	-0.55374	1.07701	0.242429	-0.631965	0.894359	0.877078	-0.466823	0.988672	0.796179	-0.476655	0.969393	0.668167	-0.519429	1.18289	0.0732504	-0.673774	0.846537	1.42872	-0.396239	0.812643	1.34528	-0.391302	0.737732	1.37342	-0.393542
9	0.233333	0.88222	1.5341	-0.647264	0.994764	1.43805	-0.588761	1.00045	1.49426	-0.801201	0.951613	1.01364	-0.774304	0.433656	0.671801	-0.661917	1.05022	1.14152	-0.766071	0.952492	1.1606	-0.920557	1.04682	1.07535	-0.795241	0.871761	1.18666	-0.97193	0.804262	1.18546	-0.912804	0.325711	0.557119	-0.757439	0.763575	1.05989	-0.707041	0.703493	0.457191	-0.717149	0.624658	0.51257	-0.761712	0.514645	0.53221	-0.694071	0.867391	0.797981	-0.81887	0.899708	0.669039	-0.807538	0.819628	0.574569	-0.782711	0.315904	0.471189	-0.68344	0.986365	1.4071	-0.880547	0.981823	1.33686	-0.877834	0.88769	1.34382	-0.906378	0.920604	1.49462	-0.466599	0.92045	1.04304	-0.517196	0.909322	0.10483	-0.657941	0.904368	1.09939	-0.353181	0.753988	1.1964	-0.303003	0.871739	1.07432	-0.293284	0.666208	1.25196	-0.329996	0.659856	1.2318	-0.408692	1.07271	0.0516882	-0.579155	0.749134	1.0586	-0.626264	1.08586	0.403832	-0.619476	1.05929	0.335735	-0.557135	1.04892	0.242011	-0.635766	0.88723	0.872874	-0.465948	0.978823	0.789857	-0.47346	0.961085	0.664199	-0.521597	1.14301	0.0715977	-0.675866	0.852595	1.41589	-0.391849	0.821134	1.33266	-0.38653	0.745203	1.3574	-0.384003
10	0.241667	0.882165	1.52981	-0.645801	0.99509	1.4324	-0.589674	0.997715	1.48786	-0.803128	0.947197	1.00735	-0.772782	0.462685	0.673797	-0.665596	1.04069	1.12198	-0.771768	0.941512	1.15026	-0.924195	1.03409	1.05692	-0.802632	0.862414	1.18276	-0.973906	0.795766	1.18256	-0.914247	0.35627	0.55762	-0.760847	0.758995	1.05566	-0.707902	0.730471	0.453132	-0.71676	0.65253	0.508634	-0.762597	0.543143	0.531605	-0.695572	0.87259	0.792528	-0.817985	0.911925	0.664965	-0.806955	0.838675	0.566609	-0.781595	0.344788	0.473037	-0.685403	0.9826	1.39904	-0.881722	0.975866	1.329	-0.878377	0.882608	1.33873	-0.908003	0.921058	1.48913	-0.46536	0.915007	1.03918	-0.515466	0.86974	0.106369	-0.658959	0.924407	1.09174	-0.349663	0.773199	1.18235	-0.294643	0.894732	1.06559	-0.288759	0.68198	1.23475	-0.318306	0.672375	1.21334	-0.396188	1.03233	0.0516699	-0.580238	0.743838	1.05486	-0.627888	1.06642	0.400218	-0.621792	1.0368	0.334021	-0.558332	1.01974	0.240692	-0.636894	0.879019	0.869435	-0.465962	0.968578	0.78439	-0.471995	0.950884	0.660334	-0.523752	1.10305	0.0704225	-0.676801	0.858914	1.40475	-0.388148	0.830687	1.32132	-0.381974	0.754137	1.34245	-0.374473
